<?xml version="1.0" encoding="UTF-8"?>
<svg id="Layer_2" data-name="Layer 2" xmlns="http://www.w3.org/2000/svg" viewBox="0 0 349.93 156.67">
  <defs>
    <style>
      .cls-1 {
        fill: #000;
      }

      .cls-1, .cls-2 {
        stroke-width: 0px;
      }

      .cls-2 {
        fill: #2f2fea;
      }
    </style>
  </defs>
  <g id="Layer_1-2" data-name="Layer 1">
    <g>
      <path class="cls-1" d="M12.35,71.07v-18.19c.11-12.79,3.11-23.03,9-30.71,5.9-7.68,14.08-11.52,24.54-11.52,4.44,0,8.69.64,12.75,1.92,4.07,1.28,6.99,2.59,8.77,3.94l2.83,1.83-10.33,20.85c-2.67-1.55-5.62-2.33-8.85-2.33-3.67,0-6.11,1.25-7.33,3.75-1.22,2.5-1.83,6.87-1.83,13.1v17.35h19.69v22.52h-19.69v63.08H12.35v-63.08H0v-22.52h12.35Z"/>
      <path class="cls-1" d="M58.56,23.34c3.46-3.44,7.57-5.17,12.35-5.17s8.91,1.72,12.35,5.17c3.46,3.45,5.19,7.56,5.19,12.35s-1.73,8.9-5.19,12.35-7.56,5.17-12.35,5.17-8.9-1.72-12.35-5.17c-3.45-3.46-5.17-7.57-5.17-12.35s1.72-8.91,5.17-12.35ZM55.75,71.07v85.6h29.52v-85.6h-29.52Z"/>
      <path class="cls-1" d="M91.96,156.67v-85.6h29.52v9h.33c7.68-7.67,15.86-11.5,24.54-11.5,4.22,0,8.42.56,12.58,1.67,4.18,1.11,8.19,2.83,12.02,5.17,3.84,2.33,6.96,5.65,9.35,9.94,2.39,4.28,3.58,9.26,3.58,14.94v56.4h-29.54v-48.4c0-4.44-1.42-8.33-4.25-11.67-2.83-3.34-6.54-5.02-11.1-5.02s-8.48,1.73-12.1,5.19c-3.61,3.45-5.42,7.28-5.42,11.5v48.4h-29.52Z"/>
      <path class="cls-1" d="M188.08,156.67v-85.6h29.52v9h.33c7.68-7.67,15.86-11.5,24.54-11.5,4.22,0,8.42.56,12.58,1.67,4.18,1.11,8.19,2.83,12.02,5.17,3.84,2.33,6.96,5.65,9.35,9.94,2.39,4.28,3.58,9.26,3.58,14.94v56.4h-29.54v-48.4c0-4.44-1.42-8.33-4.25-11.67-2.83-3.34-6.54-5.02-11.1-5.02s-8.48,1.73-12.1,5.19c-3.61,3.45-5.42,7.28-5.42,11.5v48.4h-29.52Z"/>
      <polygon class="cls-1" points="320.41 53.81 320.41 156.67 349.93 156.67 349.93 37.73 320.41 53.81"/>
      <polygon class="cls-1" points="284.2 73.54 284.2 156.67 313.72 156.67 313.72 57.46 284.2 73.54"/>
      <g>
        <polygon class="cls-2" points="284.2 47.04 284.2 62.3 349.93 24.35 349.93 9.09 284.2 47.04"/>
        <polygon class="cls-2" points="284.04 37.95 284.04 53.21 349.77 15.26 349.77 0 284.04 37.95"/>
      </g>
    </g>
  </g>
</svg>